# xmcd CD database file
#
# Track frame offsets:
#	150
#	21755
#	42239
#	58429
#	77240
#	100662
#	118498
#	135638
#	165610
#	188487
#	213164
#
# Disc length: 3111 seconds
#
# Revision: 1
# Processed by: cddbd v1.5.2PL0 Copyright (c) Steve Scherf et al.
# Submitted via: CDex 1.51
#
DISCID=960c250b
DTITLE=Various Artist - Christmas With Miss Butch Records
DYEAR=2000
DGENRE=Christmas
TTITLE0=Peggy Scott-Adams - Christmas Friends Of Mine
TTITLE1=Natisse (Bambi) Jones - Can Reindeer Fly?
TTITLE2=Billy Ray Charles and Jimmy Lewis - Wild Horses Two Mules And A Tractor
TTITLE3=Peggy Scott-Adams and Jimmy Lewis - Light You Up Like A Christmas Tree
TTITLE4=Peggy Scott-Adams, Jimmy Lewis and Natisse (Bambi) Jones - Silent Night
TTITLE5=Peggy Scott-Adams, Jimmy Lewis and Billy Ray Charles - Christmas Loving
TTITLE6=Jimmy Lewis - Christmas Is Party Time
TTITLE7=Billy Ray Charles - I Been Double Crossed By Santa Claus
TTITLE8=Jimmy Lewis and Peggy Scott-Adams - I Respect Everyone
TTITLE9=Jimmy Lewis - Santa Send Me A Love
TTITLE10=Jimmy Lewis - Christmas Is My Favorite Time Of Year
EXTD=YEAR: 2000
EXTT0=
EXTT1=
EXTT2=
EXTT3=
EXTT4=
EXTT5=
EXTT6=
EXTT7=
EXTT8=
EXTT9=
EXTT10=
PLAYORDER=
